<svg width="140" height="29" viewBox="0 0 140 29" fill="none" xmlns="http://www.w3.org/2000/svg">
<path fill-rule="evenodd" clip-rule="evenodd" d="M0.529798 4.87651C0 6.15556 0 7.77703 0 11.02V17.98C0 21.2229 0 22.8444 0.529798 24.1235C1.2362 25.8289 2.59113 27.1838 4.29652 27.8902C5.57557 28.42 7.19704 28.42 10.44 28.42H17.4C20.643 28.42 22.2644 28.42 23.5435 27.8902C25.2489 27.1838 26.6038 25.8289 27.3102 24.1235C27.84 22.8444 27.84 21.2229 27.84 17.98V11.02C27.84 7.77703 27.84 6.15556 27.3102 4.87651C26.6038 3.17111 25.2489 1.81618 23.5435 1.10979C22.2644 0.579987 20.643 0.579987 17.4 0.579987H10.44C7.19705 0.579987 5.57557 0.579987 4.29652 1.10979C2.59113 1.81618 1.2362 3.17111 0.529798 4.87651ZM16.0557 8.20214C16.0856 8.09385 15.9594 8.01056 15.8716 8.08056L8.10221 14.2709C8.02806 14.33 8.05225 14.4482 8.14364 14.4734L12.2851 15.6162C12.3468 15.6333 12.3831 15.6971 12.366 15.7589L11.0519 20.5215C11.022 20.6298 11.1481 20.7131 11.236 20.6431L19.0053 14.4528C19.0795 14.3937 19.0553 14.2754 18.9639 14.2502L14.8225 13.1074C14.7607 13.0904 14.7245 13.0265 14.7415 12.9648L16.0557 8.20214Z" fill="#2563EB"/>
<path d="M47.7397 10.9798C47.6738 10.3152 47.391 9.79896 46.8911 9.43097C46.3913 9.06297 45.713 8.87898 44.8562 8.87898C44.274 8.87898 43.7824 8.96136 43.3815 9.12614C42.9805 9.28542 42.673 9.50786 42.4588 9.79347C42.25 10.0791 42.1457 10.4031 42.1457 10.7656C42.1347 11.0677 42.1979 11.3313 42.3352 11.5565C42.478 11.7817 42.673 11.9767 42.9201 12.1415C43.1673 12.3008 43.4529 12.4408 43.7769 12.5616C44.101 12.677 44.447 12.7759 44.815 12.8582L46.3309 13.2207C47.0669 13.3855 47.7425 13.6052 48.3576 13.8798C48.9728 14.1545 49.5055 14.4922 49.9559 14.8932C50.4063 15.2941 50.7551 15.7665 51.0022 16.3102C51.2549 16.854 51.3839 17.4774 51.3894 18.1804C51.3839 19.213 51.1203 20.1082 50.5985 20.8662C50.0822 21.6187 49.3353 22.2036 48.3576 22.621C47.3855 23.033 46.2128 23.2389 44.8397 23.2389C43.4776 23.2389 42.2912 23.0302 41.2806 22.6128C40.2755 22.1954 39.4901 21.5775 38.9244 20.7591C38.3642 19.9352 38.0703 18.9164 38.0428 17.7026H41.4948C41.5333 18.2683 41.6953 18.7406 41.9809 19.1196C42.272 19.4931 42.6592 19.7759 43.1426 19.9682C43.6314 20.1549 44.1834 20.2483 44.7985 20.2483C45.4027 20.2483 45.9272 20.1604 46.3721 19.9847C46.8225 19.8089 47.1713 19.5645 47.4184 19.2514C47.6656 18.9384 47.7892 18.5786 47.7892 18.1722C47.7892 17.7932 47.6766 17.4746 47.4514 17.2165C47.2317 16.9583 46.9076 16.7386 46.4792 16.5574C46.0563 16.3761 45.5373 16.2114 44.9221 16.0631L43.0849 15.6017C41.6624 15.2557 40.5392 14.7147 39.7153 13.9787C38.8914 13.2427 38.4822 12.2513 38.4877 11.0045C38.4822 9.98295 38.7541 9.09044 39.3034 8.32699C39.8581 7.56354 40.6188 6.96761 41.5855 6.5392C42.5521 6.1108 43.6506 5.89659 44.8809 5.89659C46.1332 5.89659 47.2262 6.1108 48.1599 6.5392C49.0991 6.96761 49.8296 7.56354 50.3514 8.32699C50.8731 9.09044 51.1423 9.97472 51.1588 10.9798H47.7397ZM56.9427 15.6841V23H53.433V6.12727H56.8438V12.5781H56.9921C57.2777 11.8312 57.7391 11.2462 58.3762 10.8233C59.0133 10.3949 59.8125 10.1807 60.7737 10.1807C61.6524 10.1807 62.4186 10.3729 63.0722 10.7574C63.7313 11.1364 64.2421 11.6829 64.6046 12.3969C64.9726 13.1054 65.1539 13.954 65.1484 14.9426V23H61.6387V15.5688C61.6442 14.7888 61.4465 14.1819 61.0455 13.748C60.6501 13.3141 60.0953 13.0972 59.3813 13.0972C58.9035 13.0972 58.4806 13.1988 58.1126 13.402C57.7501 13.6052 57.4645 13.9018 57.2558 14.2918C57.0525 14.6762 56.9482 15.1403 56.9427 15.6841ZM67.6204 23V10.3455H71.13V23H67.6204ZM69.3834 8.7142C68.8617 8.7142 68.414 8.54119 68.0405 8.19517C67.6725 7.84366 67.4886 7.42349 67.4886 6.93466C67.4886 6.45133 67.6725 6.03665 68.0405 5.69063C68.414 5.33911 68.8617 5.16335 69.3834 5.16335C69.9052 5.16335 70.3501 5.33911 70.7181 5.69063C71.0916 6.03665 71.2783 6.45133 71.2783 6.93466C71.2783 7.42349 71.0916 7.84366 70.7181 8.19517C70.3501 8.54119 69.9052 8.7142 69.3834 8.7142ZM79.4185 23.2472C78.1168 23.2472 76.9964 22.9835 76.0571 22.4563C75.1234 21.9235 74.4039 21.171 73.8986 20.1989C73.3933 19.2212 73.1407 18.0651 73.1407 16.7304C73.1407 15.4287 73.3933 14.2863 73.8986 13.3031C74.4039 12.32 75.1152 11.5538 76.0324 11.0045C76.9552 10.4553 78.0372 10.1807 79.2785 10.1807C80.1133 10.1807 80.8905 10.3152 81.61 10.5844C82.335 10.848 82.9666 11.2462 83.5049 11.779C84.0486 12.3117 84.4715 12.9818 84.7736 13.7892C85.0757 14.5911 85.2267 15.5303 85.2267 16.6068V17.5707H74.5412V15.3957H81.9231C81.9231 14.8904 81.8132 14.4428 81.5935 14.0528C81.3738 13.6629 81.069 13.358 80.679 13.1384C80.2946 12.9132 79.8469 12.8006 79.3361 12.8006C78.8034 12.8006 78.331 12.9241 77.9191 13.1713C77.5126 13.413 77.1941 13.7398 76.9634 14.1517C76.7327 14.5581 76.6146 15.0113 76.6091 15.5111V17.579C76.6091 18.2051 76.7245 18.7461 76.9552 19.202C77.1913 19.6579 77.5236 20.0094 77.952 20.2565C78.3804 20.5037 78.8885 20.6273 79.4762 20.6273C79.8661 20.6273 80.2232 20.5723 80.5472 20.4625C80.8713 20.3527 81.1486 20.1879 81.3793 19.9682C81.61 19.7485 81.7857 19.4794 81.9066 19.1608L85.1526 19.375C84.9878 20.1549 84.65 20.836 84.1392 21.4182C83.6339 21.9949 82.9803 22.4453 82.1785 22.7693C81.3821 23.0879 80.4621 23.2472 79.4185 23.2472ZM90.7367 6.12727V23H87.2271V6.12727H90.7367ZM97.9212 23.206C96.9601 23.206 96.0895 22.9588 95.3096 22.4645C94.5352 21.9647 93.92 21.2314 93.4641 20.2648C93.0138 19.2926 92.7886 18.1008 92.7886 16.6892C92.7886 15.2392 93.022 14.0336 93.4889 13.0724C93.9557 12.1058 94.5764 11.3835 95.3508 10.9057C96.1307 10.4223 96.9848 10.1807 97.913 10.1807C98.6215 10.1807 99.212 10.3015 99.6843 10.5432C100.162 10.7794 100.547 11.0759 100.838 11.433C101.134 11.7845 101.36 12.1305 101.513 12.471H101.62V6.12727H105.122V23H101.662V20.9733H101.513C101.349 21.3248 101.115 21.6736 100.813 22.0196C100.516 22.3601 100.129 22.643 99.6514 22.8682C99.179 23.0934 98.6023 23.206 97.9212 23.206ZM99.0335 20.4131C99.5992 20.4131 100.077 20.2593 100.467 19.9517C100.862 19.6386 101.165 19.202 101.373 18.6418C101.587 18.0815 101.695 17.4252 101.695 16.6727C101.695 15.9203 101.59 15.2667 101.381 14.7119C101.173 14.1572 100.871 13.7288 100.475 13.4267C100.08 13.1246 99.5992 12.9736 99.0335 12.9736C98.4568 12.9736 97.9707 13.1301 97.5752 13.4432C97.1798 13.7563 96.8804 14.1902 96.6772 14.7449C96.474 15.2996 96.3724 15.9422 96.3724 16.6727C96.3724 17.4087 96.474 18.0596 96.6772 18.6253C96.8859 19.1855 97.1853 19.6249 97.5752 19.9435C97.9707 20.2565 98.4568 20.4131 99.0335 20.4131ZM107.717 23V10.3455H111.227V23H107.717ZM109.48 8.7142C108.959 8.7142 108.511 8.54119 108.138 8.19517C107.77 7.84366 107.586 7.42349 107.586 6.93466C107.586 6.45133 107.77 6.03665 108.138 5.69063C108.511 5.33911 108.959 5.16335 109.48 5.16335C110.002 5.16335 110.447 5.33911 110.815 5.69063C111.189 6.03665 111.375 6.45133 111.375 6.93466C111.375 7.42349 111.189 7.84366 110.815 8.19517C110.447 8.54119 110.002 8.7142 109.48 8.7142ZM120.554 10.3455V12.9818H112.743V10.3455H120.554ZM114.531 23V9.43097C114.531 8.51373 114.71 7.75303 115.067 7.14886C115.429 6.5447 115.923 6.09157 116.55 5.78949C117.176 5.48741 117.887 5.33636 118.683 5.33636C119.222 5.33636 119.713 5.37756 120.158 5.45994C120.609 5.54233 120.944 5.61648 121.163 5.68239L120.537 8.31875C120.4 8.27481 120.23 8.23362 120.026 8.19517C119.829 8.15672 119.625 8.1375 119.417 8.1375C118.9 8.1375 118.541 8.25833 118.337 8.5C118.134 8.73617 118.033 9.06847 118.033 9.49688V23H114.531ZM124.574 27.7455C124.13 27.7455 123.712 27.7098 123.322 27.6384C122.938 27.5724 122.619 27.4873 122.367 27.383L123.157 24.7631C123.569 24.8894 123.94 24.958 124.27 24.969C124.605 24.98 124.893 24.9031 125.135 24.7384C125.382 24.5736 125.582 24.2935 125.736 23.898L125.942 23.3625L121.403 10.3455H125.094L127.713 19.6386H127.845L130.49 10.3455H134.205L129.287 24.3676C129.051 25.0487 128.729 25.6419 128.323 26.1472C127.922 26.658 127.414 27.0507 126.799 27.3253C126.184 27.6054 125.442 27.7455 124.574 27.7455Z" fill="white"/>
</svg>
